<?xml version="1.0" encoding="utf-8"?>
<!-- Generator: Adobe Illustrator 15.0.2, SVG Export Plug-In . SVG Version: 6.00 Build 0)  -->
<!DOCTYPE svg PUBLIC "-//W3C//DTD SVG 1.1//EN" "http://www.w3.org/Graphics/SVG/1.1/DTD/svg11.dtd">
<svg version="1.1" id="Layer_1" xmlns="http://www.w3.org/2000/svg" xmlns:xlink="http://www.w3.org/1999/xlink" x="0px" y="0px"
	 width="32px" height="32px" viewBox="0 0 32 32" enable-background="new 0 0 32 32" xml:space="preserve">
<path fill="#FFFFFF" d="M0.5,4C0.2,4,0,4.2,0,4.5v2C0,6.8,0.2,7,0.5,7h2C2.8,7,3,6.8,3,6.5v-2C3,4.2,2.8,4,2.5,4H0.5z M6,4v3h26V4H6
	z M0.5,11C0.2,11,0,11.2,0,11.5v2C0,13.8,0.2,14,0.5,14h2C2.8,14,3,13.8,3,13.5v-2C3,11.2,2.8,11,2.5,11H0.5z M6,11v3h20v-3H6z
	 M0.5,18C0.2,18,0,18.2,0,18.5v2C0,20.8,0.2,21,0.5,21h2C2.8,21,3,20.8,3,20.5v-2C3,18.2,2.8,18,2.5,18H0.5z M6,18v3h26v-3H6z
	 M0.5,25C0.2,25,0,25.2,0,25.5v2C0,27.8,0.2,28,0.5,28h2C2.8,28,3,27.8,3,27.5v-2C3,25.2,2.8,25,2.5,25H0.5z M6,25v3h24v-3H6z"/>
</svg>
